<?xml version="1.0" encoding="UTF-8"?>
<svg id="Ebene_1" xmlns="http://www.w3.org/2000/svg" version="1.1" viewBox="0 0 226.77 226.87">
  <!-- Generator: Adobe Illustrator 29.1.0, SVG Export Plug-In . SVG Version: 2.1.0 Build 142)  -->
  <defs>
    <style>
      .st0 {
        fill: #86bc25;
      }
    </style>
  </defs>
  <path class="st0" d="M181.47,45.33h-113.34l-22.66,22.68-.07,113.39h136.07V45.33h0ZM204.09,147.38h22.61l.09,22.68h-22.61v34.01h-34.07v22.79h-22.68v-22.78l-22.68-.03v22.69l-22.68.06v-22.72h-22.68v22.69h-22.68v-22.69H22.84v-34.03H.03v-22.68h22.84l-.03-22.68H.03l-.03-22.68h22.9s-.06-22.68-.06-22.68H.06l-.03-22.68,22.89-.05L56.73,22.7V.05h22.68v22.56l22.68.09V.09l22.68-.09v22.61l22.68.09V.09h22.68v22.61l34.07-.04v34.02h22.61l.09,22.68h-22.7l.09,22.68h22.61l-.09,22.68h-22.61l-.09,22.68h0Z"/>
</svg>